<svg width="858" height="782" viewBox="0 0 858 782" fill="none" xmlns="http://www.w3.org/2000/svg">
<circle cx="132" cy="744" r="38" fill="#3F75FF"/>
<circle cx="307" cy="555" r="38" fill="#3F75FF"/>
<circle cx="307" cy="471" r="38" fill="#386FFE"/>
<circle cx="38" cy="513" r="38" transform="rotate(90 38 513)" fill="#386FFE"/>
<circle cx="223" cy="471" r="38" fill="#3F75FF"/>
<circle cx="38" cy="429" r="38" transform="rotate(90 38 429)" fill="#3F75FF"/>
<circle cx="391" cy="555" r="38" fill="#386FFE"/>
<circle cx="38" cy="38" r="38" transform="matrix(-1 0 0 1 764 315)" fill="#3F75FF"/>
<circle cx="38" cy="38" r="38" transform="matrix(-1 0 0 1 589 126)" fill="#3F75FF"/>
<circle cx="38" cy="38" r="38" transform="matrix(-1 0 0 1 589 42)" fill="#386FFE"/>
<circle cx="38" cy="38" r="38" transform="matrix(4.37114e-08 1 1 -4.37114e-08 782 84)" fill="#386FFE"/>
<circle cx="38" cy="38" r="38" transform="matrix(-1 0 0 1 673 42)" fill="#3F75FF"/>
<circle cx="38" cy="38" r="38" transform="matrix(4.37114e-08 1 1 -4.37114e-08 782 0)" fill="#3F75FF"/>
<circle cx="38" cy="38" r="38" transform="matrix(-1 0 0 1 505 126)" fill="#386FFE"/>
<circle cx="561" cy="744" r="38" fill="#3F75FF"/>
<circle cx="736" cy="555" r="38" fill="#3F75FF"/>
<circle cx="736" cy="471" r="38" fill="#386FFE"/>
<circle cx="467" cy="513" r="38" transform="rotate(90 467 513)" fill="#386FFE"/>
<circle cx="652" cy="471" r="38" fill="#3F75FF"/>
<circle cx="467" cy="429" r="38" transform="rotate(90 467 429)" fill="#3F75FF"/>
<circle cx="820" cy="555" r="38" fill="#386FFE"/>
<circle cx="38" cy="38" r="38" transform="matrix(-1 0 0 1 335 315)" fill="#3F75FF"/>
<circle cx="38" cy="38" r="38" transform="matrix(-1 0 0 1 160 126)" fill="#3F75FF"/>
<circle cx="38" cy="38" r="38" transform="matrix(-1 0 0 1 160 42)" fill="#386FFE"/>
<circle cx="38" cy="38" r="38" transform="matrix(4.37114e-08 1 1 -4.37114e-08 353 84)" fill="#386FFE"/>
<circle cx="38" cy="38" r="38" transform="matrix(-1 0 0 1 244 42)" fill="#3F75FF"/>
<circle cx="38" cy="38" r="38" transform="matrix(4.37114e-08 1 1 -4.37114e-08 353 0)" fill="#3F75FF"/>
<circle cx="38" cy="38" r="38" transform="matrix(-1 0 0 1 76 126)" fill="#386FFE"/>
</svg>
