<svg width="858" height="391" viewBox="0 0 858 391" fill="none" xmlns="http://www.w3.org/2000/svg">
<circle cx="132" cy="353" r="38" fill="#3F75FF"/>
<circle cx="307" cy="164" r="38" fill="#3F75FF"/>
<circle cx="307" cy="80" r="38" fill="#386FFE"/>
<circle cx="38" cy="122" r="38" transform="rotate(90 38 122)" fill="#386FFE"/>
<circle cx="223" cy="80" r="38" fill="#3F75FF"/>
<circle cx="38" cy="38" r="38" transform="rotate(90 38 38)" fill="#3F75FF"/>
<circle cx="391" cy="164" r="38" fill="#386FFE"/>
<circle cx="38" cy="38" r="38" transform="matrix(1 0 0 -1 523 76)" fill="#3F75FF"/>
<circle cx="38" cy="38" r="38" transform="matrix(1 0 0 -1 698 265)" fill="#3F75FF"/>
<circle cx="38" cy="38" r="38" transform="matrix(1 0 0 -1 698 349)" fill="#386FFE"/>
<circle cx="38" cy="38" r="38" transform="matrix(-4.37114e-08 -1 -1 4.37114e-08 505 307)" fill="#386FFE"/>
<circle cx="38" cy="38" r="38" transform="matrix(1 0 0 -1 614 349)" fill="#3F75FF"/>
<circle cx="38" cy="38" r="38" transform="matrix(-4.37114e-08 -1 -1 4.37114e-08 505 391)" fill="#3F75FF"/>
<circle cx="38" cy="38" r="38" transform="matrix(1 0 0 -1 782 265)" fill="#386FFE"/>
</svg>
