<svg width="80" height="80" viewBox="0 0 80 80" fill="none" xmlns="http://www.w3.org/2000/svg">
<mask id="mask0_60_2031" style="mask-type:alpha" maskUnits="userSpaceOnUse" x="0" y="0" width="80" height="80">
<path d="M80 40C80 62.0914 62.0914 80 40 80C17.9086 80 0 62.0914 0 40C0 17.9086 17.9086 0 40 0C62.0914 0 80 17.9086 80 40Z" fill="#D9D9D9"/>
</mask>
<g mask="url(#mask0_60_2031)">
<path d="M58.7352 33.9194C58.7352 40.9084 53.0695 46.5741 46.0805 46.5741C39.0915 46.5741 33.4258 40.9084 33.4258 33.9194C33.4258 26.9304 39.0915 21.2646 46.0805 21.2646C53.0695 21.2646 58.7352 26.9304 58.7352 33.9194Z" fill="#A5EB18" fill-opacity="0.65"/>
<path d="M54.134 42.3007C54.134 51.3773 46.776 58.7354 37.6993 58.7354C28.6227 58.7354 21.2646 51.3773 21.2646 42.3007C21.2646 33.224 28.6227 25.866 37.6993 25.866C46.776 25.866 54.134 33.224 54.134 42.3007Z" fill="white"/>
<path fill-rule="evenodd" clip-rule="evenodd" d="M36.2682 25.927C36.7399 25.8864 37.2172 25.8656 37.6993 25.8656C46.776 25.8656 54.134 33.2237 54.134 42.3003C54.134 42.7824 54.1133 43.2596 54.0726 43.7312C51.8936 45.5081 49.1115 46.5737 46.0805 46.5737C39.0915 46.5737 33.4258 40.908 33.4258 33.919C33.4258 30.8881 34.4913 28.1061 36.2682 25.927Z" fill="#A5EB18"/>
</g>
</svg>
