<svg width="80" height="80" viewBox="0 0 80 80" fill="none" xmlns="http://www.w3.org/2000/svg">
<path d="M80 27.0179C80 41.9395 67.9036 54.0359 52.982 54.0359C38.0605 54.0359 25.9641 41.9395 25.9641 27.0179C25.9641 12.0963 38.0605 0 52.982 0C67.9036 0 80 12.0963 80 27.0179Z" fill="#A5EB18" fill-opacity="0.65"/>
<path d="M70.1765 44.9121C70.1765 64.2908 54.4669 80.0003 35.0882 80.0003C15.7095 80.0003 0 64.2908 0 44.9121C0 25.5334 15.7095 9.82385 35.0882 9.82385C54.4669 9.82385 70.1765 25.5334 70.1765 44.9121Z" fill="white"/>
<path fill-rule="evenodd" clip-rule="evenodd" d="M32.0328 9.95427C33.0397 9.86742 34.0588 9.82309 35.0882 9.82309C54.4669 9.82309 70.1765 25.5326 70.1765 44.9113C70.1765 45.9406 70.1321 46.9595 70.0453 47.9662C65.3931 51.7601 59.4533 54.0351 52.9821 54.0351C38.0605 54.0351 25.9641 41.9388 25.9641 27.0172C25.9641 20.5462 28.2391 14.6065 32.0328 9.95427Z" fill="#A5EB18"/>
</svg>
